<svg width="375" height="812" viewBox="0 0 375 812" fill="none" xmlns="http://www.w3.org/2000/svg">
<g clip-path="url(#clip0_993_3569)">
<rect width="375" height="812" rx="20" fill="url(#paint0_linear_993_3569)"/>
<mask id="mask0_993_3569" style="mask-type:alpha" maskUnits="userSpaceOnUse" x="0" y="0" width="375" height="812">
<rect width="375" height="812" fill="black"/>
</mask>
<g mask="url(#mask0_993_3569)">
<path d="M180.636 121.296V117.48H187.284V135H183.012V121.296H180.636Z" fill="white" fill-opacity="0.07"/>
<path d="M136.136 382.296V378.48H142.784V396H138.512V382.296H136.136Z" fill="white" fill-opacity="0.07"/>
<path d="M151.136 525.296V521.48H157.784V539H153.512V525.296H151.136Z" fill="white" fill-opacity="0.07"/>
<path d="M176.081 287.712C176.625 287.28 176.873 287.08 176.825 287.112C178.393 285.816 179.625 284.752 180.521 283.92C181.433 283.088 182.201 282.216 182.825 281.304C183.449 280.392 183.761 279.504 183.761 278.64C183.761 277.984 183.609 277.472 183.305 277.104C183.001 276.736 182.545 276.552 181.937 276.552C181.329 276.552 180.849 276.784 180.497 277.248C180.161 277.696 179.993 278.336 179.993 279.168H176.033C176.065 277.808 176.353 276.672 176.897 275.76C177.457 274.848 178.185 274.176 179.081 273.744C179.993 273.312 181.001 273.096 182.105 273.096C184.009 273.096 185.441 273.584 186.401 274.56C187.377 275.536 187.865 276.808 187.865 278.376C187.865 280.088 187.281 281.68 186.113 283.152C184.945 284.608 183.457 286.032 181.649 287.424H188.129V290.76H176.081V287.712Z" fill="white" fill-opacity="0.07"/>
<path d="M60.0805 436.712C60.6245 436.28 60.8725 436.08 60.8245 436.112C62.3925 434.816 63.6245 433.752 64.5205 432.92C65.4325 432.088 66.2005 431.216 66.8245 430.304C67.4485 429.392 67.7605 428.504 67.7605 427.64C67.7605 426.984 67.6085 426.472 67.3045 426.104C67.0005 425.736 66.5445 425.552 65.9365 425.552C65.3285 425.552 64.8485 425.784 64.4965 426.248C64.1605 426.696 63.9925 427.336 63.9925 428.168H60.0325C60.0645 426.808 60.3525 425.672 60.8965 424.76C61.4565 423.848 62.1845 423.176 63.0805 422.744C63.9925 422.312 65.0005 422.096 66.1045 422.096C68.0085 422.096 69.4405 422.584 70.4005 423.56C71.3765 424.536 71.8645 425.808 71.8645 427.376C71.8645 429.088 71.2805 430.68 70.1125 432.152C68.9445 433.608 67.4565 435.032 65.6485 436.424H72.1285V439.76H60.0805V436.712Z" fill="white" fill-opacity="0.07"/>
<path d="M91.0805 574.712C91.6245 574.28 91.8725 574.08 91.8245 574.112C93.3925 572.816 94.6245 571.752 95.5205 570.92C96.4325 570.088 97.2005 569.216 97.8245 568.304C98.4485 567.392 98.7605 566.504 98.7605 565.64C98.7605 564.984 98.6085 564.472 98.3045 564.104C98.0005 563.736 97.5445 563.552 96.9365 563.552C96.3285 563.552 95.8485 563.784 95.4965 564.248C95.1605 564.696 94.9925 565.336 94.9925 566.168H91.0325C91.0645 564.808 91.3525 563.672 91.8965 562.76C92.4565 561.848 93.1845 561.176 94.0805 560.744C94.9925 560.312 96.0005 560.096 97.1045 560.096C99.0085 560.096 100.441 560.584 101.401 561.56C102.377 562.536 102.865 563.808 102.865 565.376C102.865 567.088 102.281 568.68 101.113 570.152C99.9445 571.608 98.4565 573.032 96.6485 574.424H103.129V577.76H91.0805V574.712Z" fill="white" fill-opacity="0.07"/>
<path d="M327.081 45.712C327.625 45.28 327.873 45.08 327.825 45.112C329.393 43.816 330.625 42.752 331.521 41.92C332.433 41.088 333.201 40.216 333.825 39.304C334.449 38.392 334.761 37.504 334.761 36.64C334.761 35.984 334.609 35.472 334.305 35.104C334.001 34.736 333.545 34.552 332.937 34.552C332.329 34.552 331.849 34.784 331.497 35.248C331.161 35.696 330.993 36.336 330.993 37.168H327.033C327.065 35.808 327.353 34.672 327.897 33.76C328.457 32.848 329.185 32.176 330.081 31.744C330.993 31.312 332.001 31.096 333.105 31.096C335.009 31.096 336.441 31.584 337.401 32.56C338.377 33.536 338.865 34.808 338.865 36.376C338.865 38.088 338.281 39.68 337.113 41.152C335.945 42.608 334.457 44.032 332.649 45.424H339.129V48.76H327.081V45.712Z" fill="white" fill-opacity="0.07"/>
<path d="M192.581 220.712C193.125 220.28 193.373 220.08 193.325 220.112C194.893 218.816 196.125 217.752 197.021 216.92C197.933 216.088 198.701 215.216 199.325 214.304C199.949 213.392 200.261 212.504 200.261 211.64C200.261 210.984 200.109 210.472 199.805 210.104C199.501 209.736 199.045 209.552 198.437 209.552C197.829 209.552 197.349 209.784 196.997 210.248C196.661 210.696 196.493 211.336 196.493 212.168H192.533C192.565 210.808 192.853 209.672 193.397 208.76C193.957 207.848 194.685 207.176 195.581 206.744C196.493 206.312 197.501 206.096 198.605 206.096C200.509 206.096 201.941 206.584 202.901 207.56C203.877 208.536 204.365 209.808 204.365 211.376C204.365 213.088 203.781 214.68 202.613 216.152C201.445 217.608 199.957 219.032 198.149 220.424H204.629V223.76H192.581V220.712Z" fill="white" fill-opacity="0.07"/>
<path d="M33.9195 45.712C33.3755 45.28 33.1275 45.08 33.1755 45.112C31.6075 43.816 30.3755 42.752 29.4795 41.92C28.5675 41.088 27.7995 40.216 27.1755 39.304C26.5515 38.392 26.2395 37.504 26.2395 36.64C26.2395 35.984 26.3915 35.472 26.6955 35.104C26.9995 34.736 27.4555 34.552 28.0635 34.552C28.6715 34.552 29.1515 34.784 29.5035 35.248C29.8395 35.696 30.0075 36.336 30.0075 37.168H33.9675C33.9355 35.808 33.6475 34.672 33.1035 33.76C32.5435 32.848 31.8155 32.176 30.9195 31.744C30.0075 31.312 28.9995 31.096 27.8955 31.096C25.9915 31.096 24.5595 31.584 23.5995 32.56C22.6235 33.536 22.1355 34.808 22.1355 36.376C22.1355 38.088 22.7195 39.68 23.8875 41.152C25.0555 42.608 26.5435 44.032 28.3515 45.424H21.8715V48.76H33.9195V45.712Z" fill="white" fill-opacity="0.07"/>
<path d="M17.9195 227.712C17.3755 227.28 17.1275 227.08 17.1755 227.112C15.6075 225.816 14.3755 224.752 13.4795 223.92C12.5675 223.088 11.7995 222.216 11.1755 221.304C10.5515 220.392 10.2395 219.504 10.2395 218.64C10.2395 217.984 10.3915 217.472 10.6955 217.104C10.9995 216.736 11.4555 216.552 12.0635 216.552C12.6715 216.552 13.1515 216.784 13.5035 217.248C13.8395 217.696 14.0075 218.336 14.0075 219.168H17.9675C17.9355 217.808 17.6475 216.672 17.1035 215.76C16.5435 214.848 15.8155 214.176 14.9195 213.744C14.0075 213.312 12.9995 213.096 11.8955 213.096C9.99147 213.096 8.55947 213.584 7.59947 214.56C6.62347 215.536 6.13547 216.808 6.13547 218.376C6.13547 220.088 6.71947 221.68 7.88747 223.152C9.05547 224.608 10.5435 226.032 12.3515 227.424H5.87147V230.76H17.9195V227.712Z" fill="white" fill-opacity="0.07"/>
<path d="M230.23 513L226.798 507.84L223.774 513H219.118L224.518 504.432L218.998 496.152H223.774L227.158 501.24L230.134 496.152H234.79L229.438 504.648L235.006 513H230.23Z" fill="white" fill-opacity="0.07"/>
<path d="M287.23 385L283.798 379.84L280.774 385H276.118L281.518 376.432L275.998 368.152H280.774L284.158 373.24L287.134 368.152H291.79L286.438 376.648L292.006 385H287.23Z" fill="white" fill-opacity="0.07"/>
<path d="M344.23 161L340.798 155.84L337.774 161H333.118L338.518 152.432L332.998 144.152H337.774L341.158 149.24L344.134 144.152H348.79L343.438 152.648L349.006 161H344.23Z" fill="white" fill-opacity="0.07"/>
<path d="M99.7299 48L96.2979 42.84L93.2739 48H88.6179L94.0179 39.432L88.4979 31.152H93.2739L96.6579 36.24L99.6339 31.152H104.29L98.9379 39.648L104.506 48H99.7299Z" fill="white" fill-opacity="0.07"/>
<path d="M139.042 324.424C138.978 322.712 138.418 321.392 137.362 320.464C136.306 319.536 134.874 319.072 133.066 319.072C131.866 319.072 130.842 319.28 129.994 319.696C129.13 320.112 128.482 320.68 128.05 321.4C127.602 322.12 127.378 322.928 127.378 323.824C127.378 324.88 127.642 325.744 128.17 326.416C128.698 327.072 129.314 327.52 130.018 327.76V327.856C129.106 328.16 128.386 328.664 127.858 329.368C127.33 330.072 127.066 330.976 127.066 332.08C127.066 333.072 127.298 333.952 127.762 334.72C128.21 335.472 128.874 336.064 129.754 336.496C130.618 336.928 131.65 337.144 132.85 337.144C134.77 337.144 136.306 336.672 137.458 335.728C138.594 334.784 139.194 333.36 139.258 331.456H135.274C135.258 332.16 135.058 332.72 134.674 333.136C134.29 333.536 133.73 333.736 132.994 333.736C132.37 333.736 131.89 333.56 131.554 333.208C131.202 332.84 131.026 332.36 131.026 331.768C131.026 331 131.274 330.448 131.77 330.112C132.25 329.76 133.026 329.584 134.098 329.584H134.866V326.248H134.098C133.282 326.248 132.626 326.112 132.13 325.84C131.618 325.552 131.362 325.048 131.362 324.328C131.362 323.752 131.522 323.304 131.842 322.984C132.162 322.664 132.602 322.504 133.162 322.504C133.77 322.504 134.226 322.688 134.53 323.056C134.818 323.424 134.986 323.88 135.034 324.424H139.042Z" fill="white" fill-opacity="0.07"/>
<path d="M279.542 434.424C279.478 432.712 278.918 431.392 277.862 430.464C276.806 429.536 275.374 429.072 273.566 429.072C272.366 429.072 271.342 429.28 270.494 429.696C269.63 430.112 268.982 430.68 268.55 431.4C268.102 432.12 267.878 432.928 267.878 433.824C267.878 434.88 268.142 435.744 268.67 436.416C269.198 437.072 269.814 437.52 270.518 437.76V437.856C269.606 438.16 268.886 438.664 268.358 439.368C267.83 440.072 267.566 440.976 267.566 442.08C267.566 443.072 267.798 443.952 268.262 444.72C268.71 445.472 269.374 446.064 270.254 446.496C271.118 446.928 272.15 447.144 273.35 447.144C275.27 447.144 276.806 446.672 277.958 445.728C279.094 444.784 279.694 443.36 279.758 441.456H275.774C275.758 442.16 275.558 442.72 275.174 443.136C274.79 443.536 274.23 443.736 273.494 443.736C272.87 443.736 272.39 443.56 272.054 443.208C271.702 442.84 271.526 442.36 271.526 441.768C271.526 441 271.774 440.448 272.27 440.112C272.75 439.76 273.526 439.584 274.598 439.584H275.366V436.248H274.598C273.782 436.248 273.126 436.112 272.63 435.84C272.118 435.552 271.862 435.048 271.862 434.328C271.862 433.752 272.022 433.304 272.342 432.984C272.662 432.664 273.102 432.504 273.662 432.504C274.27 432.504 274.726 432.688 275.03 433.056C275.318 433.424 275.486 433.88 275.534 434.424H279.542Z" fill="white" fill-opacity="0.07"/>
<path d="M38.5416 559.424C38.4776 557.712 37.9176 556.392 36.8616 555.464C35.8056 554.536 34.3736 554.072 32.5656 554.072C31.3656 554.072 30.3416 554.28 29.4936 554.696C28.6296 555.112 27.9816 555.68 27.5496 556.4C27.1016 557.12 26.8776 557.928 26.8776 558.824C26.8776 559.88 27.1416 560.744 27.6696 561.416C28.1976 562.072 28.8136 562.52 29.5176 562.76V562.856C28.6056 563.16 27.8856 563.664 27.3576 564.368C26.8296 565.072 26.5656 565.976 26.5656 567.08C26.5656 568.072 26.7976 568.952 27.2616 569.72C27.7096 570.472 28.3736 571.064 29.2536 571.496C30.1176 571.928 31.1496 572.144 32.3496 572.144C34.2696 572.144 35.8056 571.672 36.9576 570.728C38.0936 569.784 38.6936 568.36 38.7576 566.456H34.7736C34.7576 567.16 34.5576 567.72 34.1736 568.136C33.7896 568.536 33.2296 568.736 32.4936 568.736C31.8696 568.736 31.3896 568.56 31.0536 568.208C30.7016 567.84 30.5256 567.36 30.5256 566.768C30.5256 566 30.7736 565.448 31.2696 565.112C31.7496 564.76 32.5256 564.584 33.5976 564.584H34.3656V561.248H33.5976C32.7816 561.248 32.1256 561.112 31.6296 560.84C31.1176 560.552 30.8616 560.048 30.8616 559.328C30.8616 558.752 31.0216 558.304 31.3416 557.984C31.6616 557.664 32.1016 557.504 32.6616 557.504C33.2696 557.504 33.7256 557.688 34.0296 558.056C34.3176 558.424 34.4856 558.88 34.5336 559.424H38.5416Z" fill="white" fill-opacity="0.07"/>
<path d="M342.542 627.424C342.478 625.712 341.918 624.392 340.862 623.464C339.806 622.536 338.374 622.072 336.566 622.072C335.366 622.072 334.342 622.28 333.494 622.696C332.63 623.112 331.982 623.68 331.55 624.4C331.102 625.12 330.878 625.928 330.878 626.824C330.878 627.88 331.142 628.744 331.67 629.416C332.198 630.072 332.814 630.52 333.518 630.76V630.856C332.606 631.16 331.886 631.664 331.358 632.368C330.83 633.072 330.566 633.976 330.566 635.08C330.566 636.072 330.798 636.952 331.262 637.72C331.71 638.472 332.374 639.064 333.254 639.496C334.118 639.928 335.15 640.144 336.35 640.144C338.27 640.144 339.806 639.672 340.958 638.728C342.094 637.784 342.694 636.36 342.758 634.456H338.774C338.758 635.16 338.558 635.72 338.174 636.136C337.79 636.536 337.23 636.736 336.494 636.736C335.87 636.736 335.39 636.56 335.054 636.208C334.702 635.84 334.526 635.36 334.526 634.768C334.526 634 334.774 633.448 335.27 633.112C335.75 632.76 336.526 632.584 337.598 632.584H338.366V629.248H337.598C336.782 629.248 336.126 629.112 335.63 628.84C335.118 628.552 334.862 628.048 334.862 627.328C334.862 626.752 335.022 626.304 335.342 625.984C335.662 625.664 336.102 625.504 336.662 625.504C337.27 625.504 337.726 625.688 338.03 626.056C338.318 626.424 338.486 626.88 338.534 627.424H342.542Z" fill="white" fill-opacity="0.07"/>
<path d="M202.542 762.424C202.478 760.712 201.918 759.392 200.862 758.464C199.806 757.536 198.374 757.072 196.566 757.072C195.366 757.072 194.342 757.28 193.494 757.696C192.63 758.112 191.982 758.68 191.55 759.4C191.102 760.12 190.878 760.928 190.878 761.824C190.878 762.88 191.142 763.744 191.67 764.416C192.198 765.072 192.814 765.52 193.518 765.76V765.856C192.606 766.16 191.886 766.664 191.358 767.368C190.83 768.072 190.566 768.976 190.566 770.08C190.566 771.072 190.798 771.952 191.262 772.72C191.71 773.472 192.374 774.064 193.254 774.496C194.118 774.928 195.15 775.144 196.35 775.144C198.27 775.144 199.806 774.672 200.958 773.728C202.094 772.784 202.694 771.36 202.758 769.456H198.774C198.758 770.16 198.558 770.72 198.174 771.136C197.79 771.536 197.23 771.736 196.494 771.736C195.87 771.736 195.39 771.56 195.054 771.208C194.702 770.84 194.526 770.36 194.526 769.768C194.526 769 194.774 768.448 195.27 768.112C195.75 767.76 196.526 767.584 197.598 767.584H198.366V764.248H197.598C196.782 764.248 196.126 764.112 195.63 763.84C195.118 763.552 194.862 763.048 194.862 762.328C194.862 761.752 195.022 761.304 195.342 760.984C195.662 760.664 196.102 760.504 196.662 760.504C197.27 760.504 197.726 760.688 198.03 761.056C198.318 761.424 198.486 761.88 198.534 762.424H202.542Z" fill="white" fill-opacity="0.07"/>
<path d="M28.5416 97.424C28.4776 95.712 27.9176 94.392 26.8616 93.464C25.8056 92.536 24.3736 92.072 22.5656 92.072C21.3656 92.072 20.3416 92.28 19.4936 92.696C18.6296 93.112 17.9816 93.68 17.5496 94.4C17.1016 95.12 16.8776 95.928 16.8776 96.824C16.8776 97.88 17.1416 98.744 17.6696 99.416C18.1976 100.072 18.8136 100.52 19.5176 100.76V100.856C18.6056 101.16 17.8856 101.664 17.3576 102.368C16.8296 103.072 16.5656 103.976 16.5656 105.08C16.5656 106.072 16.7976 106.952 17.2616 107.72C17.7096 108.472 18.3736 109.064 19.2536 109.496C20.1176 109.928 21.1496 110.144 22.3496 110.144C24.2696 110.144 25.8056 109.672 26.9576 108.728C28.0936 107.784 28.6936 106.36 28.7576 104.456H24.7736C24.7576 105.16 24.5576 105.72 24.1736 106.136C23.7896 106.536 23.2296 106.736 22.4936 106.736C21.8696 106.736 21.3896 106.56 21.0536 106.208C20.7016 105.84 20.5256 105.36 20.5256 104.768C20.5256 104 20.7736 103.448 21.2696 103.112C21.7496 102.76 22.5256 102.584 23.5976 102.584H24.3656V99.248H23.5976C22.7816 99.248 22.1256 99.112 21.6296 98.84C21.1176 98.552 20.8616 98.048 20.8616 97.328C20.8616 96.752 21.0216 96.304 21.3416 95.984C21.6616 95.664 22.1016 95.504 22.6616 95.504C23.2696 95.504 23.7256 95.688 24.0296 96.056C24.3176 96.424 24.4856 96.88 24.5336 97.424H28.5416Z" fill="white" fill-opacity="0.07"/>
<path d="M248.542 156.424C248.478 154.712 247.918 153.392 246.862 152.464C245.806 151.536 244.374 151.072 242.566 151.072C241.366 151.072 240.342 151.28 239.494 151.696C238.63 152.112 237.982 152.68 237.55 153.4C237.102 154.12 236.878 154.928 236.878 155.824C236.878 156.88 237.142 157.744 237.67 158.416C238.198 159.072 238.814 159.52 239.518 159.76V159.856C238.606 160.16 237.886 160.664 237.358 161.368C236.83 162.072 236.566 162.976 236.566 164.08C236.566 165.072 236.798 165.952 237.262 166.72C237.71 167.472 238.374 168.064 239.254 168.496C240.118 168.928 241.15 169.144 242.35 169.144C244.27 169.144 245.806 168.672 246.958 167.728C248.094 166.784 248.694 165.36 248.758 163.456H244.774C244.758 164.16 244.558 164.72 244.174 165.136C243.79 165.536 243.23 165.736 242.494 165.736C241.87 165.736 241.39 165.56 241.054 165.208C240.702 164.84 240.526 164.36 240.526 163.768C240.526 163 240.774 162.448 241.27 162.112C241.75 161.76 242.526 161.584 243.598 161.584H244.366V158.248H243.598C242.782 158.248 242.126 158.112 241.63 157.84C241.118 157.552 240.862 157.048 240.862 156.328C240.862 155.752 241.022 155.304 241.342 154.984C241.662 154.664 242.102 154.504 242.662 154.504C243.27 154.504 243.726 154.688 244.03 155.056C244.318 155.424 244.486 155.88 244.534 156.424H248.542Z" fill="white" fill-opacity="0.07"/>
<path d="M111.555 443.88V440.568L119.139 429.72H123.723V440.328H125.691V443.88H123.723V447H119.619V443.88H111.555ZM119.907 434.232L115.875 440.328H119.907V434.232Z" fill="white" fill-opacity="0.07"/>
<path d="M324.555 436.88V433.568L332.139 422.72H336.723V433.328H338.691V436.88H336.723V440H332.619V436.88H324.555ZM332.907 427.232L328.875 433.328H332.907V427.232Z" fill="white" fill-opacity="0.07"/>
<path d="M26.5549 633.88V630.568L34.1389 619.72H38.7229V630.328H40.6909V633.88H38.7229V637H34.6189V633.88H26.5549ZM34.9069 624.232L30.8749 630.328H34.9069V624.232Z" fill="white" fill-opacity="0.07"/>
<path d="M208.555 688.88V685.568L216.139 674.72H220.723V685.328H222.691V688.88H220.723V692H216.619V688.88H208.555ZM216.907 679.232L212.875 685.328H216.907V679.232Z" fill="white" fill-opacity="0.07"/>
<path d="M155.555 69.88V66.568L163.139 55.72H167.723V66.328H169.691V69.88H167.723V73H163.619V69.88H155.555ZM163.907 60.232L159.875 66.328H163.907V60.232Z" fill="white" fill-opacity="0.07"/>
<path d="M73.4451 296.88V293.568L65.8611 282.72H61.2771V293.328H59.3091V296.88H61.2771V300H65.3811V296.88H73.4451ZM65.0931 287.232L69.1251 293.328H65.0931V287.232Z" fill="white" fill-opacity="0.07"/>
<path d="M291.445 322.88V319.568L283.861 308.72H279.277V319.328H277.309V322.88H279.277V326H283.381V322.88H291.445ZM283.093 313.232L287.125 319.328H283.093V313.232Z" fill="white" fill-opacity="0.07"/>
<path d="M151.111 730.056H143.623V733.368C143.943 733.016 144.391 732.728 144.967 732.504C145.543 732.28 146.167 732.168 146.839 732.168C148.039 732.168 149.031 732.44 149.815 732.984C150.615 733.528 151.199 734.232 151.567 735.096C151.935 735.96 152.119 736.896 152.119 737.904C152.119 739.776 151.591 741.264 150.535 742.368C149.479 743.456 147.991 744 146.071 744C144.791 744 143.679 743.784 142.735 743.352C141.791 742.904 141.063 742.288 140.551 741.504C140.039 740.72 139.759 739.816 139.711 738.792H143.719C143.815 739.288 144.047 739.704 144.415 740.04C144.783 740.36 145.287 740.52 145.927 740.52C146.679 740.52 147.239 740.28 147.607 739.8C147.975 739.32 148.159 738.68 148.159 737.88C148.159 737.096 147.967 736.496 147.583 736.08C147.199 735.664 146.639 735.456 145.903 735.456C145.359 735.456 144.911 735.592 144.559 735.864C144.207 736.12 143.975 736.464 143.863 736.896H139.903V726.456H151.111V730.056Z" fill="white" fill-opacity="0.07"/>
<path d="M202.111 564.056H194.623V567.368C194.943 567.016 195.391 566.728 195.967 566.504C196.543 566.28 197.167 566.168 197.839 566.168C199.039 566.168 200.031 566.44 200.815 566.984C201.615 567.528 202.199 568.232 202.567 569.096C202.935 569.96 203.119 570.896 203.119 571.904C203.119 573.776 202.591 575.264 201.535 576.368C200.479 577.456 198.991 578 197.071 578C195.791 578 194.679 577.784 193.735 577.352C192.791 576.904 192.063 576.288 191.551 575.504C191.039 574.72 190.759 573.816 190.711 572.792H194.719C194.815 573.288 195.047 573.704 195.415 574.04C195.783 574.36 196.287 574.52 196.927 574.52C197.679 574.52 198.239 574.28 198.607 573.8C198.975 573.32 199.159 572.68 199.159 571.88C199.159 571.096 198.967 570.496 198.583 570.08C198.199 569.664 197.639 569.456 196.903 569.456C196.359 569.456 195.911 569.592 195.559 569.864C195.207 570.12 194.975 570.464 194.863 570.896H190.903V560.456H202.111V564.056Z" fill="white" fill-opacity="0.07"/>
<path d="M292.111 210.056H284.623V213.368C284.943 213.016 285.391 212.728 285.967 212.504C286.543 212.28 287.167 212.168 287.839 212.168C289.039 212.168 290.031 212.44 290.815 212.984C291.615 213.528 292.199 214.232 292.567 215.096C292.935 215.96 293.119 216.896 293.119 217.904C293.119 219.776 292.591 221.264 291.535 222.368C290.479 223.456 288.991 224 287.071 224C285.791 224 284.679 223.784 283.735 223.352C282.791 222.904 282.063 222.288 281.551 221.504C281.039 220.72 280.759 219.816 280.711 218.792H284.719C284.815 219.288 285.047 219.704 285.415 220.04C285.783 220.36 286.287 220.52 286.927 220.52C287.679 220.52 288.239 220.28 288.607 219.8C288.975 219.32 289.159 218.68 289.159 217.88C289.159 217.096 288.967 216.496 288.583 216.08C288.199 215.664 287.639 215.456 286.903 215.456C286.359 215.456 285.911 215.592 285.559 215.864C285.207 216.12 284.975 216.464 284.863 216.896H280.903V206.456H292.111V210.056Z" fill="white" fill-opacity="0.07"/>
<path d="M220.611 416.056H213.123V419.368C213.443 419.016 213.891 418.728 214.467 418.504C215.043 418.28 215.667 418.168 216.339 418.168C217.539 418.168 218.531 418.44 219.315 418.984C220.115 419.528 220.699 420.232 221.067 421.096C221.435 421.96 221.619 422.896 221.619 423.904C221.619 425.776 221.091 427.264 220.035 428.368C218.979 429.456 217.491 430 215.571 430C214.291 430 213.179 429.784 212.235 429.352C211.291 428.904 210.563 428.288 210.051 427.504C209.539 426.72 209.259 425.816 209.211 424.792H213.219C213.315 425.288 213.547 425.704 213.915 426.04C214.283 426.36 214.787 426.52 215.427 426.52C216.179 426.52 216.739 426.28 217.107 425.8C217.475 425.32 217.659 424.68 217.659 423.88C217.659 423.096 217.467 422.496 217.083 422.08C216.699 421.664 216.139 421.456 215.403 421.456C214.859 421.456 214.411 421.592 214.059 421.864C213.707 422.12 213.475 422.464 213.363 422.896H209.403V412.456H220.611V416.056Z" fill="white" fill-opacity="0.07"/>
<path d="M304.111 492.056H296.623V495.368C296.943 495.016 297.391 494.728 297.967 494.504C298.543 494.28 299.167 494.168 299.839 494.168C301.039 494.168 302.031 494.44 302.815 494.984C303.615 495.528 304.199 496.232 304.567 497.096C304.935 497.96 305.119 498.896 305.119 499.904C305.119 501.776 304.591 503.264 303.535 504.368C302.479 505.456 300.991 506 299.071 506C297.791 506 296.679 505.784 295.735 505.352C294.791 504.904 294.063 504.288 293.551 503.504C293.039 502.72 292.759 501.816 292.711 500.792H296.719C296.815 501.288 297.047 501.704 297.415 502.04C297.783 502.36 298.287 502.52 298.927 502.52C299.679 502.52 300.239 502.28 300.607 501.8C300.975 501.32 301.159 500.68 301.159 499.88C301.159 499.096 300.967 498.496 300.583 498.08C300.199 497.664 299.639 497.456 298.903 497.456C298.359 497.456 297.911 497.592 297.559 497.864C297.207 498.12 296.975 498.464 296.863 498.896H292.903V488.456H304.111V492.056Z" fill="white" fill-opacity="0.07"/>
<path d="M131.889 172.056H139.377V175.368C139.057 175.016 138.609 174.728 138.033 174.504C137.457 174.28 136.833 174.168 136.161 174.168C134.961 174.168 133.969 174.44 133.185 174.984C132.385 175.528 131.801 176.232 131.433 177.096C131.065 177.96 130.881 178.896 130.881 179.904C130.881 181.776 131.409 183.264 132.465 184.368C133.521 185.456 135.009 186 136.929 186C138.209 186 139.321 185.784 140.265 185.352C141.209 184.904 141.937 184.288 142.449 183.504C142.961 182.72 143.241 181.816 143.289 180.792H139.281C139.185 181.288 138.953 181.704 138.585 182.04C138.217 182.36 137.713 182.52 137.073 182.52C136.321 182.52 135.761 182.28 135.393 181.8C135.025 181.32 134.841 180.68 134.841 179.88C134.841 179.096 135.033 178.496 135.417 178.08C135.801 177.664 136.361 177.456 137.097 177.456C137.641 177.456 138.089 177.592 138.441 177.864C138.793 178.12 139.025 178.464 139.137 178.896H143.097V168.456H131.889V172.056Z" fill="white" fill-opacity="0.07"/>
<path d="M82.8887 360.056H90.3767V363.368C90.0567 363.016 89.6087 362.728 89.0327 362.504C88.4567 362.28 87.8327 362.168 87.1607 362.168C85.9607 362.168 84.9687 362.44 84.1847 362.984C83.3847 363.528 82.8007 364.232 82.4327 365.096C82.0647 365.96 81.8807 366.896 81.8807 367.904C81.8807 369.776 82.4087 371.264 83.4647 372.368C84.5207 373.456 86.0087 374 87.9287 374C89.2087 374 90.3207 373.784 91.2647 373.352C92.2087 372.904 92.9367 372.288 93.4487 371.504C93.9607 370.72 94.2407 369.816 94.2887 368.792H90.2807C90.1847 369.288 89.9527 369.704 89.5847 370.04C89.2167 370.36 88.7127 370.52 88.0727 370.52C87.3207 370.52 86.7607 370.28 86.3927 369.8C86.0247 369.32 85.8407 368.68 85.8407 367.88C85.8407 367.096 86.0327 366.496 86.4167 366.08C86.8007 365.664 87.3607 365.456 88.0967 365.456C88.6407 365.456 89.0887 365.592 89.4407 365.864C89.7927 366.12 90.0247 366.464 90.1367 366.896H94.0967V356.456H82.8887V360.056Z" fill="white" fill-opacity="0.07"/>
<path d="M308.889 575.056H316.377V578.368C316.057 578.016 315.609 577.728 315.033 577.504C314.457 577.28 313.833 577.168 313.161 577.168C311.961 577.168 310.969 577.44 310.185 577.984C309.385 578.528 308.801 579.232 308.433 580.096C308.065 580.96 307.881 581.896 307.881 582.904C307.881 584.776 308.409 586.264 309.465 587.368C310.521 588.456 312.009 589 313.929 589C315.209 589 316.321 588.784 317.265 588.352C318.209 587.904 318.937 587.288 319.449 586.504C319.961 585.72 320.241 584.816 320.289 583.792H316.281C316.185 584.288 315.953 584.704 315.585 585.04C315.217 585.36 314.713 585.52 314.073 585.52C313.321 585.52 312.761 585.28 312.393 584.8C312.025 584.32 311.841 583.68 311.841 582.88C311.841 582.096 312.033 581.496 312.417 581.08C312.801 580.664 313.361 580.456 314.097 580.456C314.641 580.456 315.089 580.592 315.441 580.864C315.793 581.12 316.025 581.464 316.137 581.896H320.097V571.456H308.889V575.056Z" fill="white" fill-opacity="0.07"/>
<path d="M345.603 518.208C345.475 517.616 345.251 517.176 344.931 516.888C344.611 516.584 344.155 516.432 343.563 516.432C342.651 516.432 341.995 516.832 341.595 517.632C341.195 518.416 340.987 519.664 340.971 521.376C341.323 520.816 341.827 520.376 342.483 520.056C343.155 519.736 343.891 519.576 344.691 519.576C346.259 519.576 347.515 520.072 348.459 521.064C349.419 522.056 349.899 523.44 349.899 525.216C349.899 526.384 349.659 527.408 349.179 528.288C348.715 529.168 348.027 529.856 347.115 530.352C346.219 530.848 345.155 531.096 343.923 531.096C341.459 531.096 339.747 530.328 338.787 528.792C337.827 527.24 337.347 525.016 337.347 522.12C337.347 519.08 337.851 516.824 338.859 515.352C339.883 513.864 341.515 513.12 343.755 513.12C344.955 513.12 345.963 513.36 346.779 513.84C347.611 514.304 348.235 514.92 348.651 515.688C349.083 516.456 349.339 517.296 349.419 518.208H345.603ZM343.707 522.816C343.019 522.816 342.443 523.024 341.979 523.44C341.531 523.84 341.307 524.416 341.307 525.168C341.307 525.936 341.515 526.536 341.931 526.968C342.363 527.4 342.971 527.616 343.755 527.616C344.459 527.616 345.011 527.408 345.411 526.992C345.827 526.56 346.035 525.976 346.035 525.24C346.035 524.488 345.835 523.896 345.435 523.464C345.035 523.032 344.459 522.816 343.707 522.816Z" fill="white" fill-opacity="0.07"/>
<path d="M250.603 624.208C250.475 623.616 250.251 623.176 249.931 622.888C249.611 622.584 249.155 622.432 248.563 622.432C247.651 622.432 246.995 622.832 246.595 623.632C246.195 624.416 245.987 625.664 245.971 627.376C246.323 626.816 246.827 626.376 247.483 626.056C248.155 625.736 248.891 625.576 249.691 625.576C251.259 625.576 252.515 626.072 253.459 627.064C254.419 628.056 254.899 629.44 254.899 631.216C254.899 632.384 254.659 633.408 254.179 634.288C253.715 635.168 253.027 635.856 252.115 636.352C251.219 636.848 250.155 637.096 248.923 637.096C246.459 637.096 244.747 636.328 243.787 634.792C242.827 633.24 242.347 631.016 242.347 628.12C242.347 625.08 242.851 622.824 243.859 621.352C244.883 619.864 246.515 619.12 248.755 619.12C249.955 619.12 250.963 619.36 251.779 619.84C252.611 620.304 253.235 620.92 253.651 621.688C254.083 622.456 254.339 623.296 254.419 624.208H250.603ZM248.707 628.816C248.019 628.816 247.443 629.024 246.979 629.44C246.531 629.84 246.307 630.416 246.307 631.168C246.307 631.936 246.515 632.536 246.931 632.968C247.363 633.4 247.971 633.616 248.755 633.616C249.459 633.616 250.011 633.408 250.411 632.992C250.827 632.56 251.035 631.976 251.035 631.24C251.035 630.488 250.835 629.896 250.435 629.464C250.035 629.032 249.459 628.816 248.707 628.816Z" fill="white" fill-opacity="0.07"/>
<path d="M116.603 112.208C116.475 111.616 116.251 111.176 115.931 110.888C115.611 110.584 115.155 110.432 114.563 110.432C113.651 110.432 112.995 110.832 112.595 111.632C112.195 112.416 111.987 113.664 111.971 115.376C112.323 114.816 112.827 114.376 113.483 114.056C114.155 113.736 114.891 113.576 115.691 113.576C117.259 113.576 118.515 114.072 119.459 115.064C120.419 116.056 120.899 117.44 120.899 119.216C120.899 120.384 120.659 121.408 120.179 122.288C119.715 123.168 119.027 123.856 118.115 124.352C117.219 124.848 116.155 125.096 114.923 125.096C112.459 125.096 110.747 124.328 109.787 122.792C108.827 121.24 108.347 119.016 108.347 116.12C108.347 113.08 108.851 110.824 109.859 109.352C110.883 107.864 112.515 107.12 114.755 107.12C115.955 107.12 116.963 107.36 117.779 107.84C118.611 108.304 119.235 108.92 119.651 109.688C120.083 110.456 120.339 111.296 120.419 112.208H116.603ZM114.707 116.816C114.019 116.816 113.443 117.024 112.979 117.44C112.531 117.84 112.307 118.416 112.307 119.168C112.307 119.936 112.515 120.536 112.931 120.968C113.363 121.4 113.971 121.616 114.755 121.616C115.459 121.616 116.011 121.408 116.411 120.992C116.827 120.56 117.035 119.976 117.035 119.24C117.035 118.488 116.835 117.896 116.435 117.464C116.035 117.032 115.459 116.816 114.707 116.816Z" fill="white" fill-opacity="0.07"/>
<path d="M64.3966 218.208C64.5246 217.616 64.7486 217.176 65.0686 216.888C65.3886 216.584 65.8446 216.432 66.4366 216.432C67.3486 216.432 68.0046 216.832 68.4046 217.632C68.8046 218.416 69.0126 219.664 69.0286 221.376C68.6766 220.816 68.1726 220.376 67.5166 220.056C66.8446 219.736 66.1086 219.576 65.3086 219.576C63.7406 219.576 62.4846 220.072 61.5406 221.064C60.5806 222.056 60.1006 223.44 60.1006 225.216C60.1006 226.384 60.3406 227.408 60.8206 228.288C61.2846 229.168 61.9726 229.856 62.8846 230.352C63.7806 230.848 64.8446 231.096 66.0766 231.096C68.5406 231.096 70.2526 230.328 71.2126 228.792C72.1726 227.24 72.6526 225.016 72.6526 222.12C72.6526 219.08 72.1486 216.824 71.1406 215.352C70.1166 213.864 68.4846 213.12 66.2446 213.12C65.0446 213.12 64.0366 213.36 63.2206 213.84C62.3886 214.304 61.7646 214.92 61.3486 215.688C60.9166 216.456 60.6606 217.296 60.5806 218.208H64.3966ZM66.2926 222.816C66.9806 222.816 67.5566 223.024 68.0206 223.44C68.4686 223.84 68.6926 224.416 68.6926 225.168C68.6926 225.936 68.4846 226.536 68.0686 226.968C67.6366 227.4 67.0286 227.616 66.2446 227.616C65.5406 227.616 64.9886 227.408 64.5886 226.992C64.1726 226.56 63.9646 225.976 63.9646 225.24C63.9646 224.488 64.1646 223.896 64.5646 223.464C64.9646 223.032 65.5406 222.816 66.2926 222.816Z" fill="white" fill-opacity="0.07"/>
<path d="M31.3966 347.208C31.5246 346.616 31.7486 346.176 32.0686 345.888C32.3886 345.584 32.8446 345.432 33.4366 345.432C34.3486 345.432 35.0046 345.832 35.4046 346.632C35.8046 347.416 36.0126 348.664 36.0286 350.376C35.6766 349.816 35.1726 349.376 34.5166 349.056C33.8446 348.736 33.1086 348.576 32.3086 348.576C30.7406 348.576 29.4846 349.072 28.5406 350.064C27.5806 351.056 27.1006 352.44 27.1006 354.216C27.1006 355.384 27.3406 356.408 27.8206 357.288C28.2846 358.168 28.9726 358.856 29.8846 359.352C30.7806 359.848 31.8446 360.096 33.0766 360.096C35.5406 360.096 37.2526 359.328 38.2126 357.792C39.1726 356.24 39.6526 354.016 39.6526 351.12C39.6526 348.08 39.1486 345.824 38.1406 344.352C37.1166 342.864 35.4846 342.12 33.2446 342.12C32.0446 342.12 31.0366 342.36 30.2206 342.84C29.3886 343.304 28.7646 343.92 28.3486 344.688C27.9166 345.456 27.6606 346.296 27.5806 347.208H31.3966ZM33.2926 351.816C33.9806 351.816 34.5566 352.024 35.0206 352.44C35.4686 352.84 35.6926 353.416 35.6926 354.168C35.6926 354.936 35.4846 355.536 35.0686 355.968C34.6366 356.4 34.0286 356.616 33.2446 356.616C32.5406 356.616 31.9886 356.408 31.5886 355.992C31.1726 355.56 30.9646 354.976 30.9646 354.24C30.9646 353.488 31.1646 352.896 31.5646 352.464C31.9646 352.032 32.5406 351.816 33.2926 351.816Z" fill="white" fill-opacity="0.07"/>
<path d="M209.397 350.208C209.525 349.616 209.749 349.176 210.069 348.888C210.389 348.584 210.845 348.432 211.437 348.432C212.349 348.432 213.005 348.832 213.405 349.632C213.805 350.416 214.013 351.664 214.029 353.376C213.677 352.816 213.173 352.376 212.517 352.056C211.845 351.736 211.109 351.576 210.309 351.576C208.741 351.576 207.485 352.072 206.541 353.064C205.581 354.056 205.101 355.44 205.101 357.216C205.101 358.384 205.341 359.408 205.821 360.288C206.285 361.168 206.973 361.856 207.885 362.352C208.781 362.848 209.845 363.096 211.077 363.096C213.541 363.096 215.253 362.328 216.213 360.792C217.173 359.24 217.653 357.016 217.653 354.12C217.653 351.08 217.149 348.824 216.141 347.352C215.117 345.864 213.485 345.12 211.245 345.12C210.045 345.12 209.037 345.36 208.221 345.84C207.389 346.304 206.765 346.92 206.349 347.688C205.917 348.456 205.661 349.296 205.581 350.208H209.397ZM211.293 354.816C211.981 354.816 212.557 355.024 213.021 355.44C213.469 355.84 213.693 356.416 213.693 357.168C213.693 357.936 213.485 358.536 213.069 358.968C212.637 359.4 212.029 359.616 211.245 359.616C210.541 359.616 209.989 359.408 209.589 358.992C209.173 358.56 208.965 357.976 208.965 357.24C208.965 356.488 209.165 355.896 209.565 355.464C209.965 355.032 210.541 354.816 211.293 354.816Z" fill="white" fill-opacity="0.07"/>
<path d="M86.3421 765.552L80.3181 780H76.1181L82.2141 766.008H74.7501V762.504H86.3421V765.552Z" fill="white" fill-opacity="0.07"/>
<path d="M349.342 355.552L343.318 370H339.118L345.214 356.008H337.75V352.504H349.342V355.552Z" fill="white" fill-opacity="0.07"/>
<path d="M248.342 33.552L242.318 48H238.118L244.214 34.008H236.75V30.504H248.342V33.552Z" fill="white" fill-opacity="0.07"/>
<path d="M54.3421 487.552L48.3181 502H44.1181L50.2141 488.008H42.7501V484.504H54.3421V487.552Z" fill="white" fill-opacity="0.07"/>
<path d="M89.3421 622.552L83.3181 637H79.1181L85.2141 623.008H77.7501V619.504H89.3421V622.552Z" fill="white" fill-opacity="0.07"/>
<path d="M258.342 709.552L252.318 724H248.118L254.214 710.008H246.75V706.504H258.342V709.552Z" fill="white" fill-opacity="0.07"/>
<path d="M169.658 467.552L175.682 482H179.882L173.786 468.008H181.25V464.504H169.658V467.552Z" fill="white" fill-opacity="0.07"/>
<path d="M125.679 246.592C124.175 245.792 123.423 244.536 123.423 242.824C123.423 241.96 123.647 241.176 124.095 240.472C124.543 239.752 125.223 239.184 126.135 238.768C127.047 238.336 128.167 238.12 129.495 238.12C130.823 238.12 131.935 238.336 132.831 238.768C133.743 239.184 134.423 239.752 134.871 240.472C135.319 241.176 135.543 241.96 135.543 242.824C135.543 243.688 135.335 244.44 134.919 245.08C134.519 245.72 133.975 246.224 133.287 246.592C134.151 247.008 134.815 247.584 135.279 248.32C135.743 249.04 135.975 249.888 135.975 250.864C135.975 252 135.687 252.984 135.111 253.816C134.535 254.632 133.751 255.256 132.759 255.688C131.783 256.12 130.695 256.336 129.495 256.336C128.295 256.336 127.199 256.12 126.207 255.688C125.231 255.256 124.455 254.632 123.879 253.816C123.303 252.984 123.015 252 123.015 250.864C123.015 249.872 123.247 249.016 123.711 248.296C124.175 247.56 124.831 246.992 125.679 246.592ZM131.559 243.448C131.559 242.792 131.367 242.288 130.983 241.936C130.615 241.568 130.119 241.384 129.495 241.384C128.871 241.384 128.367 241.568 127.983 241.936C127.615 242.304 127.431 242.816 127.431 243.472C127.431 244.096 127.623 244.592 128.007 244.96C128.391 245.312 128.887 245.488 129.495 245.488C130.103 245.488 130.599 245.304 130.983 244.936C131.367 244.568 131.559 244.072 131.559 243.448ZM129.495 248.368C128.743 248.368 128.135 248.576 127.671 248.992C127.207 249.392 126.975 249.952 126.975 250.672C126.975 251.344 127.199 251.896 127.647 252.328C128.111 252.76 128.727 252.976 129.495 252.976C130.263 252.976 130.863 252.76 131.295 252.328C131.743 251.896 131.967 251.344 131.967 250.672C131.967 249.968 131.735 249.408 131.271 248.992C130.823 248.576 130.231 248.368 129.495 248.368Z" fill="white" fill-opacity="0.07"/>
<path d="M247.679 554.592C246.175 553.792 245.423 552.536 245.423 550.824C245.423 549.96 245.647 549.176 246.095 548.472C246.543 547.752 247.223 547.184 248.135 546.768C249.047 546.336 250.167 546.12 251.495 546.12C252.823 546.12 253.935 546.336 254.831 546.768C255.743 547.184 256.423 547.752 256.871 548.472C257.319 549.176 257.543 549.96 257.543 550.824C257.543 551.688 257.335 552.44 256.919 553.08C256.519 553.72 255.975 554.224 255.287 554.592C256.151 555.008 256.815 555.584 257.279 556.32C257.743 557.04 257.975 557.888 257.975 558.864C257.975 560 257.687 560.984 257.111 561.816C256.535 562.632 255.751 563.256 254.759 563.688C253.783 564.12 252.695 564.336 251.495 564.336C250.295 564.336 249.199 564.12 248.207 563.688C247.231 563.256 246.455 562.632 245.879 561.816C245.303 560.984 245.015 560 245.015 558.864C245.015 557.872 245.247 557.016 245.711 556.296C246.175 555.56 246.831 554.992 247.679 554.592ZM253.559 551.448C253.559 550.792 253.367 550.288 252.983 549.936C252.615 549.568 252.119 549.384 251.495 549.384C250.871 549.384 250.367 549.568 249.983 549.936C249.615 550.304 249.431 550.816 249.431 551.472C249.431 552.096 249.623 552.592 250.007 552.96C250.391 553.312 250.887 553.488 251.495 553.488C252.103 553.488 252.599 553.304 252.983 552.936C253.367 552.568 253.559 552.072 253.559 551.448ZM251.495 556.368C250.743 556.368 250.135 556.576 249.671 556.992C249.207 557.392 248.975 557.952 248.975 558.672C248.975 559.344 249.199 559.896 249.647 560.328C250.111 560.76 250.727 560.976 251.495 560.976C252.263 560.976 252.863 560.76 253.295 560.328C253.743 559.896 253.967 559.344 253.967 558.672C253.967 557.968 253.735 557.408 253.271 556.992C252.823 556.576 252.231 556.368 251.495 556.368Z" fill="white" fill-opacity="0.07"/>
<path d="M311.679 759.592C310.175 758.792 309.423 757.536 309.423 755.824C309.423 754.96 309.647 754.176 310.095 753.472C310.543 752.752 311.223 752.184 312.135 751.768C313.047 751.336 314.167 751.12 315.495 751.12C316.823 751.12 317.935 751.336 318.831 751.768C319.743 752.184 320.423 752.752 320.871 753.472C321.319 754.176 321.543 754.96 321.543 755.824C321.543 756.688 321.335 757.44 320.919 758.08C320.519 758.72 319.975 759.224 319.287 759.592C320.151 760.008 320.815 760.584 321.279 761.32C321.743 762.04 321.975 762.888 321.975 763.864C321.975 765 321.687 765.984 321.111 766.816C320.535 767.632 319.751 768.256 318.759 768.688C317.783 769.12 316.695 769.336 315.495 769.336C314.295 769.336 313.199 769.12 312.207 768.688C311.231 768.256 310.455 767.632 309.879 766.816C309.303 765.984 309.015 765 309.015 763.864C309.015 762.872 309.247 762.016 309.711 761.296C310.175 760.56 310.831 759.992 311.679 759.592ZM317.559 756.448C317.559 755.792 317.367 755.288 316.983 754.936C316.615 754.568 316.119 754.384 315.495 754.384C314.871 754.384 314.367 754.568 313.983 754.936C313.615 755.304 313.431 755.816 313.431 756.472C313.431 757.096 313.623 757.592 314.007 757.96C314.391 758.312 314.887 758.488 315.495 758.488C316.103 758.488 316.599 758.304 316.983 757.936C317.367 757.568 317.559 757.072 317.559 756.448ZM315.495 761.368C314.743 761.368 314.135 761.576 313.671 761.992C313.207 762.392 312.975 762.952 312.975 763.672C312.975 764.344 313.199 764.896 313.647 765.328C314.111 765.76 314.727 765.976 315.495 765.976C316.263 765.976 316.863 765.76 317.295 765.328C317.743 764.896 317.967 764.344 317.967 763.672C317.967 762.968 317.735 762.408 317.271 761.992C316.823 761.576 316.231 761.368 315.495 761.368Z" fill="white" fill-opacity="0.07"/>
<path d="M233.679 281.592C232.175 280.792 231.423 279.536 231.423 277.824C231.423 276.96 231.647 276.176 232.095 275.472C232.543 274.752 233.223 274.184 234.135 273.768C235.047 273.336 236.167 273.12 237.495 273.12C238.823 273.12 239.935 273.336 240.831 273.768C241.743 274.184 242.423 274.752 242.871 275.472C243.319 276.176 243.543 276.96 243.543 277.824C243.543 278.688 243.335 279.44 242.919 280.08C242.519 280.72 241.975 281.224 241.287 281.592C242.151 282.008 242.815 282.584 243.279 283.32C243.743 284.04 243.975 284.888 243.975 285.864C243.975 287 243.687 287.984 243.111 288.816C242.535 289.632 241.751 290.256 240.759 290.688C239.783 291.12 238.695 291.336 237.495 291.336C236.295 291.336 235.199 291.12 234.207 290.688C233.231 290.256 232.455 289.632 231.879 288.816C231.303 287.984 231.015 287 231.015 285.864C231.015 284.872 231.247 284.016 231.711 283.296C232.175 282.56 232.831 281.992 233.679 281.592ZM239.559 278.448C239.559 277.792 239.367 277.288 238.983 276.936C238.615 276.568 238.119 276.384 237.495 276.384C236.871 276.384 236.367 276.568 235.983 276.936C235.615 277.304 235.431 277.816 235.431 278.472C235.431 279.096 235.623 279.592 236.007 279.96C236.391 280.312 236.887 280.488 237.495 280.488C238.103 280.488 238.599 280.304 238.983 279.936C239.367 279.568 239.559 279.072 239.559 278.448ZM237.495 283.368C236.743 283.368 236.135 283.576 235.671 283.992C235.207 284.392 234.975 284.952 234.975 285.672C234.975 286.344 235.199 286.896 235.647 287.328C236.111 287.76 236.727 287.976 237.495 287.976C238.263 287.976 238.863 287.76 239.295 287.328C239.743 286.896 239.967 286.344 239.967 285.672C239.967 284.968 239.735 284.408 239.271 283.992C238.823 283.576 238.231 283.368 237.495 283.368Z" fill="white" fill-opacity="0.07"/>
<path d="M107.321 507.592C108.825 506.792 109.577 505.536 109.577 503.824C109.577 502.96 109.353 502.176 108.905 501.472C108.457 500.752 107.777 500.184 106.865 499.768C105.953 499.336 104.833 499.12 103.505 499.12C102.177 499.12 101.065 499.336 100.169 499.768C99.2572 500.184 98.5772 500.752 98.1292 501.472C97.6812 502.176 97.4572 502.96 97.4572 503.824C97.4572 504.688 97.6652 505.44 98.0812 506.08C98.4812 506.72 99.0252 507.224 99.7132 507.592C98.8492 508.008 98.1852 508.584 97.7213 509.32C97.2572 510.04 97.0252 510.888 97.0252 511.864C97.0252 513 97.3132 513.984 97.8892 514.816C98.4652 515.632 99.2492 516.256 100.241 516.688C101.217 517.12 102.305 517.336 103.505 517.336C104.705 517.336 105.801 517.12 106.793 516.688C107.769 516.256 108.545 515.632 109.121 514.816C109.697 513.984 109.985 513 109.985 511.864C109.985 510.872 109.753 510.016 109.289 509.296C108.825 508.56 108.169 507.992 107.321 507.592ZM101.441 504.448C101.441 503.792 101.633 503.288 102.017 502.936C102.385 502.568 102.881 502.384 103.505 502.384C104.129 502.384 104.633 502.568 105.017 502.936C105.385 503.304 105.569 503.816 105.569 504.472C105.569 505.096 105.377 505.592 104.993 505.96C104.609 506.312 104.113 506.488 103.505 506.488C102.897 506.488 102.401 506.304 102.017 505.936C101.633 505.568 101.441 505.072 101.441 504.448ZM103.505 509.368C104.257 509.368 104.865 509.576 105.329 509.992C105.793 510.392 106.025 510.952 106.025 511.672C106.025 512.344 105.801 512.896 105.353 513.328C104.889 513.76 104.273 513.976 103.505 513.976C102.737 513.976 102.137 513.76 101.705 513.328C101.257 512.896 101.033 512.344 101.033 511.672C101.033 510.968 101.265 510.408 101.729 509.992C102.177 509.576 102.769 509.368 103.505 509.368Z" fill="white" fill-opacity="0.07"/>
<path d="M326.613 276.864C326.853 278.128 327.589 278.76 328.821 278.76C329.669 278.76 330.269 278.384 330.621 277.632C330.973 276.88 331.149 275.656 331.149 273.96C330.797 274.456 330.317 274.84 329.709 275.112C329.101 275.384 328.421 275.52 327.669 275.52C326.645 275.52 325.733 275.312 324.933 274.896C324.133 274.464 323.501 273.832 323.037 273C322.589 272.152 322.365 271.128 322.365 269.928C322.365 268.744 322.605 267.712 323.085 266.832C323.581 265.952 324.277 265.272 325.173 264.792C326.085 264.312 327.157 264.072 328.389 264.072C330.757 264.072 332.413 264.808 333.357 266.28C334.301 267.752 334.773 269.92 334.773 272.784C334.773 274.864 334.581 276.584 334.197 277.944C333.829 279.288 333.197 280.312 332.301 281.016C331.421 281.72 330.213 282.072 328.677 282.072C327.461 282.072 326.421 281.832 325.557 281.352C324.709 280.872 324.053 280.24 323.589 279.456C323.141 278.672 322.885 277.808 322.821 276.864H326.613ZM328.605 272.28C329.277 272.28 329.813 272.08 330.213 271.68C330.613 271.264 330.813 270.704 330.813 270C330.813 269.232 330.605 268.64 330.189 268.224C329.773 267.808 329.213 267.6 328.509 267.6C327.805 267.6 327.245 267.816 326.829 268.248C326.429 268.664 326.229 269.24 326.229 269.976C326.229 270.664 326.429 271.224 326.829 271.656C327.245 272.072 327.837 272.28 328.605 272.28Z" fill="white" fill-opacity="0.07"/>
<path d="M105.613 686.864C105.853 688.128 106.589 688.76 107.821 688.76C108.669 688.76 109.269 688.384 109.621 687.632C109.973 686.88 110.149 685.656 110.149 683.96C109.797 684.456 109.317 684.84 108.709 685.112C108.101 685.384 107.421 685.52 106.669 685.52C105.645 685.52 104.733 685.312 103.933 684.896C103.133 684.464 102.501 683.832 102.037 683C101.589 682.152 101.365 681.128 101.365 679.928C101.365 678.744 101.605 677.712 102.085 676.832C102.581 675.952 103.277 675.272 104.173 674.792C105.085 674.312 106.157 674.072 107.389 674.072C109.757 674.072 111.413 674.808 112.357 676.28C113.301 677.752 113.773 679.92 113.773 682.784C113.773 684.864 113.581 686.584 113.197 687.944C112.829 689.288 112.197 690.312 111.301 691.016C110.421 691.72 109.213 692.072 107.677 692.072C106.461 692.072 105.421 691.832 104.557 691.352C103.709 690.872 103.053 690.24 102.589 689.456C102.141 688.672 101.885 687.808 101.821 686.864H105.613ZM107.605 682.28C108.277 682.28 108.813 682.08 109.213 681.68C109.613 681.264 109.813 680.704 109.813 680C109.813 679.232 109.605 678.64 109.189 678.224C108.773 677.808 108.213 677.6 107.509 677.6C106.805 677.6 106.245 677.816 105.829 678.248C105.429 678.664 105.229 679.24 105.229 679.976C105.229 680.664 105.429 681.224 105.829 681.656C106.245 682.072 106.837 682.28 107.605 682.28Z" fill="white" fill-opacity="0.07"/>
<path d="M270.613 105.864C270.853 107.128 271.589 107.76 272.821 107.76C273.669 107.76 274.269 107.384 274.621 106.632C274.973 105.88 275.149 104.656 275.149 102.96C274.797 103.456 274.317 103.84 273.709 104.112C273.101 104.384 272.421 104.52 271.669 104.52C270.645 104.52 269.733 104.312 268.933 103.896C268.133 103.464 267.501 102.832 267.037 102C266.589 101.152 266.365 100.128 266.365 98.928C266.365 97.744 266.605 96.712 267.085 95.832C267.581 94.952 268.277 94.272 269.173 93.792C270.085 93.312 271.157 93.072 272.389 93.072C274.757 93.072 276.413 93.808 277.357 95.28C278.301 96.752 278.773 98.92 278.773 101.784C278.773 103.864 278.581 105.584 278.197 106.944C277.829 108.288 277.197 109.312 276.301 110.016C275.421 110.72 274.213 111.072 272.677 111.072C271.461 111.072 270.421 110.832 269.557 110.352C268.709 109.872 268.053 109.24 267.589 108.456C267.141 107.672 266.885 106.808 266.821 105.864H270.613ZM272.605 101.28C273.277 101.28 273.813 101.08 274.213 100.68C274.613 100.264 274.813 99.704 274.813 99C274.813 98.232 274.605 97.64 274.189 97.224C273.773 96.808 273.213 96.6 272.509 96.6C271.805 96.6 271.245 96.816 270.829 97.248C270.429 97.664 270.229 98.24 270.229 98.976C270.229 99.664 270.429 100.224 270.829 100.656C271.245 101.072 271.837 101.28 272.605 101.28Z" fill="white" fill-opacity="0.07"/>
<path d="M302.387 672.864C302.147 674.128 301.411 674.76 300.179 674.76C299.331 674.76 298.731 674.384 298.379 673.632C298.027 672.88 297.851 671.656 297.851 669.96C298.203 670.456 298.683 670.84 299.291 671.112C299.899 671.384 300.579 671.52 301.331 671.52C302.355 671.52 303.267 671.312 304.067 670.896C304.867 670.464 305.499 669.832 305.963 669C306.411 668.152 306.635 667.128 306.635 665.928C306.635 664.744 306.395 663.712 305.915 662.832C305.419 661.952 304.723 661.272 303.827 660.792C302.915 660.312 301.843 660.072 300.611 660.072C298.243 660.072 296.587 660.808 295.643 662.28C294.699 663.752 294.227 665.92 294.227 668.784C294.227 670.864 294.419 672.584 294.803 673.944C295.171 675.288 295.803 676.312 296.699 677.016C297.579 677.72 298.787 678.072 300.323 678.072C301.539 678.072 302.579 677.832 303.443 677.352C304.291 676.872 304.947 676.24 305.411 675.456C305.859 674.672 306.115 673.808 306.179 672.864H302.387ZM300.395 668.28C299.723 668.28 299.187 668.08 298.787 667.68C298.387 667.264 298.187 666.704 298.187 666C298.187 665.232 298.395 664.64 298.811 664.224C299.227 663.808 299.787 663.6 300.491 663.6C301.195 663.6 301.755 663.816 302.171 664.248C302.571 664.664 302.771 665.24 302.771 665.976C302.771 666.664 302.571 667.224 302.171 667.656C301.755 668.072 301.163 668.28 300.395 668.28Z" fill="white" fill-opacity="0.07"/>
<path d="M158.752 626C158.752 623.248 159.28 621.08 160.336 619.496C161.408 617.912 163.128 617.12 165.496 617.12C167.864 617.12 169.576 617.912 170.632 619.496C171.704 621.08 172.24 623.248 172.24 626C172.24 628.784 171.704 630.968 170.632 632.552C169.576 634.136 167.864 634.928 165.496 634.928C163.128 634.928 161.408 634.136 160.336 632.552C159.28 630.968 158.752 628.784 158.752 626ZM168.208 626C168.208 624.384 168.032 623.144 167.68 622.28C167.328 621.4 166.6 620.96 165.496 620.96C164.392 620.96 163.664 621.4 163.312 622.28C162.96 623.144 162.784 624.384 162.784 626C162.784 627.088 162.848 627.992 162.976 628.712C163.104 629.416 163.36 629.992 163.744 630.44C164.144 630.872 164.728 631.088 165.496 631.088C166.264 631.088 166.84 630.872 167.224 630.44C167.624 629.992 167.888 629.416 168.016 628.712C168.144 627.992 168.208 627.088 168.208 626Z" fill="white" fill-opacity="0.07"/>
<path d="M36.7519 706C36.7519 703.248 37.2799 701.08 38.3359 699.496C39.4079 697.912 41.1279 697.12 43.4959 697.12C45.8639 697.12 47.5759 697.912 48.6319 699.496C49.7039 701.08 50.2399 703.248 50.2399 706C50.2399 708.784 49.7039 710.968 48.6319 712.552C47.5759 714.136 45.8639 714.928 43.4959 714.928C41.1279 714.928 39.4079 714.136 38.3359 712.552C37.2799 710.968 36.7519 708.784 36.7519 706ZM46.2079 706C46.2079 704.384 46.0319 703.144 45.6799 702.28C45.3279 701.4 44.5999 700.96 43.4959 700.96C42.3919 700.96 41.6639 701.4 41.3119 702.28C40.9599 703.144 40.7839 704.384 40.7839 706C40.7839 707.088 40.8479 707.992 40.9759 708.712C41.1039 709.416 41.3599 709.992 41.7439 710.44C42.1439 710.872 42.7279 711.088 43.4959 711.088C44.2639 711.088 44.8399 710.872 45.2239 710.44C45.6239 709.992 45.8879 709.416 46.0159 708.712C46.1439 707.992 46.2079 707.088 46.2079 706Z" fill="white" fill-opacity="0.07"/>
<path d="M47.7519 151C47.7519 148.248 48.2799 146.08 49.3359 144.496C50.4079 142.912 52.1279 142.12 54.4959 142.12C56.8639 142.12 58.5759 142.912 59.6319 144.496C60.7039 146.08 61.2399 148.248 61.2399 151C61.2399 153.784 60.7039 155.968 59.6319 157.552C58.5759 159.136 56.8639 159.928 54.4959 159.928C52.1279 159.928 50.4079 159.136 49.3359 157.552C48.2799 155.968 47.7519 153.784 47.7519 151ZM57.2079 151C57.2079 149.384 57.0319 148.144 56.6799 147.28C56.3279 146.4 55.5999 145.96 54.4959 145.96C53.3919 145.96 52.6639 146.4 52.3119 147.28C51.9599 148.144 51.7839 149.384 51.7839 151C51.7839 152.088 51.8479 152.992 51.9759 153.712C52.1039 154.416 52.3599 154.992 52.7439 155.44C53.1439 155.872 53.7279 156.088 54.4959 156.088C55.2639 156.088 55.8399 155.872 56.2239 155.44C56.6239 154.992 56.8879 154.416 57.0159 153.712C57.1439 152.992 57.2079 152.088 57.2079 151Z" fill="white" fill-opacity="0.07"/>
</g>
</g>
<defs>
<linearGradient id="paint0_linear_993_3569" x1="187.5" y1="66.6094" x2="187.5" y2="778.469" gradientUnits="userSpaceOnUse">
<stop stop-color="#224E9C"/>
<stop offset="1" stop-color="#002566"/>
</linearGradient>
<clipPath id="clip0_993_3569">
<rect width="375" height="812" rx="20" fill="white"/>
</clipPath>
</defs>
</svg>
